<?xml version="1.0" encoding="utf-8"?>
<!-- Generator: Adobe Illustrator 17.0.0, SVG Export Plug-In . SVG Version: 6.00 Build 0)  -->
<!DOCTYPE svg PUBLIC "-//W3C//DTD SVG 1.1//EN" "http://www.w3.org/Graphics/SVG/1.1/DTD/svg11.dtd">
<svg
	version="1.1"
	id="图层_1"
	xmlns:sketch="http://www.bohemiancoding.com/sketch/ns"
	xmlns="http://www.w3.org/2000/svg"
	xmlns:xlink="http://www.w3.org/1999/xlink"
	x="0px"
	y="0px"
	width="538.946px"
	height="538.946px"
	viewBox="1030.042 30 538.946 538.946"
	enable-background="new 1030.042 30 538.946 538.946"
	xml:space="preserve">
	<title>hero</title>
	<desc>Created with Sketch.</desc>
	<g id="hero-post-1.0" sketch:type="MSPage">
		<g id="BG" transform="translate(-99.000000, -229.000000)" sketch:type="MSLayerGroup">
			<g id="Planets" transform="translate(598.712857, 0.000000)" sketch:type="MSShapeGroup">
				<g id="Left-Big" transform="translate(0.750000, 0.522007)">
					<g id="Circles" transform="translate(0.628245, 0.487764)">

						<ellipse id="Overlay" opacity="0.2795" fill="none" stroke="#C98C81" stroke-width="2" enable-background="new    " cx="798.424" cy="527.463" rx="269.473" ry="269.473"/>

						<ellipse id="Overlay_1_" opacity="0.2742" fill="none" stroke="#C98C81" stroke-width="4" enable-background="new    " cx="798.424" cy="527.463" rx="194.999" ry="194.999"/>

						<ellipse id="Overlay_2_" opacity="0.2915" fill="none" stroke="#C98C81" stroke-width="6" enable-background="new    " cx="798.424" cy="527.463" rx="143.946" ry="143.946"/>
					</g>
					<path id="Planet" fill="#72ACAB" d="M691.2,529.469c0,59.433,48.154,107.612,107.555,107.612S906.31,588.901,906.31,529.469
					s-48.154-107.612-107.555-107.612S691.2,470.036,691.2,529.469z"/>
					<path id="Planet_1_" fill="#C98C81" d="M957.161,597.678c0,12.299,9.965,22.27,22.258,22.27s22.258-9.97,22.258-22.27
					c0-12.299-9.965-22.27-22.258-22.27S957.161,585.379,957.161,597.678z"/>
					<path id="Planet_2_" fill="#C98C81" d="M851.912,652.94c0,7.34,5.947,13.29,13.283,13.29c7.336,0,13.283-5.95,13.283-13.29
					c0-7.34-5.947-13.29-13.283-13.29C857.859,639.65,851.912,645.6,851.912,652.94z"/>
					<path id="Planet_3_" fill="#79A69F" d="M608.373,728.515c0,7.34,5.947,13.29,13.283,13.29c7.336,0,13.283-5.95,13.283-13.29
					c0-7.34-5.947-13.29-13.283-13.29C614.32,715.225,608.373,721.175,608.373,728.515z"/>
				</g>
				<g id="Right" transform="translate(1512.000000, 125.000000)">
					<g id="Circles_1_">

						<ellipse id="Overlay_3_" opacity="0.2833" fill="none" stroke="#C98C81" stroke-width="2" enable-background="new    " cx="184.223" cy="358.559" rx="188.342" ry="188.342"/>

						<ellipse id="Overlay_4_" opacity="0.226" fill="none" stroke="#C98C81" stroke-width="4" enable-background="new    " cx="184.223" cy="358.559" rx="131.389" ry="131.389"/>

						<ellipse id="Overlay_5_" opacity="0.2915" fill="none" stroke="#C98C81" stroke-width="6" enable-background="new    " cx="184.223" cy="358.559" rx="100.793" ry="100.793"/>
					</g>
					<path id="Planet_4_" fill="#3E8B8A" d="M135.564,349.859c0,27.789,22.515,50.316,50.289,50.316s50.289-22.527,50.289-50.316
					s-22.515-50.316-50.289-50.316S135.564,322.071,135.564,349.859z"/>
					<path id="Planet_5_" fill="#CA8C81" d="M217.597,367.294c0,7.954,6.444,14.402,14.394,14.402s14.394-6.448,14.394-14.402
					c0-7.954-6.444-14.402-14.394-14.402S217.597,359.34,217.597,367.294z"/>
					<path id="Planet_6_" fill="#CA8C81" d="M66.718,345.665c0,11.945,9.678,21.628,21.617,21.628s21.617-9.683,21.617-21.628
					s-9.678-21.628-21.617-21.628S66.718,333.721,66.718,345.665z"/>
					<path id="Planet_7_" fill="#CA8C81" d="M360.885,349.859c0,5.571,4.514,10.087,10.082,10.087
					c5.568,0,10.082-4.516,10.082-10.087s-4.514-10.087-10.082-10.087C365.399,339.772,360.885,344.288,360.885,349.859z"/>
					<path id="Planet_8_" fill="#79A69F" d="M248.876,462.182c0,7.473,6.054,13.53,13.523,13.53c7.469,0,13.523-6.058,13.523-13.53
					c0-7.473-6.054-13.53-13.523-13.53C254.93,448.652,248.876,454.71,248.876,462.182z"/>
				</g>
			</g>
			<g id="Rocks" transform="translate(0.000000, 206.500000)" sketch:type="MSShapeGroup">
				<g id="Front">
					<g id="Seamless" transform="translate(50.000000, 431.500000)">
						<rect id="Seamless-left" x="0" y="0" fill="#991F16" width="185" height="180"/>
					</g>
				</g>
			</g>
		</g>
	</g>
</svg>
